# xmcd
#
# Track frame offsets: 
#        150
#        15977
#        28580
#        44540
#        56297
#        72847
#        92387
#        104617
#        121667
#        137370
#        150435
#        163402
#        181420
#        196385
#        210767
#
# Disc length: 3045 seconds
#
# Revision: 10
# Processed by: cddbd v1.5.2PL0 Copyright (c) Steve Scherf et al.
# Submitted via: ExactAudioCopyFreeDBPlugin 1.0
#
DISCID=b60be30f
DTITLE=Various Artist - Tulare Dust:  A Songwriters' Tribute to Merle
DTITLE=Haggard
DYEAR=1994
DGENRE=Country
TTITLE0=Tom Russell - Tulare Dust - They're Tearin' the Labor Camps Do
TTITLE0=wn
TTITLE1=Iris Dement - Big City
TTITLE2=Peter Case - A Working Man Can't Get Nowhere Today
TTITLE3=Dwight Yoakam - Holding Things Together
TTITLE4=Robert Earl Keen and the Sunshine Boys - Daddy Frank
TTITLE5=Joe Ely - White Line Fever
TTITLE6=Rosie Flores - My Own Kind of Hat
TTITLE7=Steve Young - Shopping For Dresses
TTITLE8=Marshall Crenshaw - Silver Wings
TTITLE9=Barrence Whitfield - Irma Jackson
TTITLE10=Lucinda Williams - You Don't Have Very Far To Go
TTITLE11=Billy Joe Shaver - Ramblin' Fever
TTITLE12=Katy Moffatt - I Can't Be Myself
TTITLE13=John Doe - I Can't Hold Myself in Line
TTITLE14=Dave Alvin - Kern River
EXTD=YEAR: 1994
EXTT0=
EXTT1=
EXTT2=
EXTT3=
EXTT4=
EXTT5=
EXTT6=
EXTT7=
EXTT8=
EXTT9=
EXTT10=
EXTT11=
EXTT12=
EXTT13=
EXTT14=
PLAYORDER=
